<svg width="16" height="18" viewBox="0 0 16 18" fill="none" xmlns="http://www.w3.org/2000/svg">
<path d="M2 15.5H5V10.5C5 10.2167 5.096 9.97933 5.288 9.788C5.48 9.59667 5.71733 9.50067 6 9.5H10C10.2833 9.5 10.521 9.596 10.713 9.788C10.905 9.98 11.0007 10.2173 11 10.5V15.5H14V6.5L8 2L2 6.5V15.5ZM0 15.5V6.5C0 6.18333 0.0709998 5.88333 0.213 5.6C0.355 5.31667 0.550667 5.08333 0.8 4.9L6.8 0.4C7.15 0.133333 7.55 0 8 0C8.45 0 8.85 0.133333 9.2 0.4L15.2 4.9C15.45 5.08333 15.646 5.31667 15.788 5.6C15.93 5.88333 16.0007 6.18333 16 6.5V15.5C16 16.05 15.804 16.521 15.412 16.913C15.02 17.305 14.5493 17.5007 14 17.5H10C9.71667 17.5 9.47933 17.404 9.288 17.212C9.09667 17.02 9.00067 16.7827 9 16.5V11.5H7V16.5C7 16.7833 6.904 17.021 6.712 17.213C6.52 17.405 6.28267 17.5007 6 17.5H2C1.45 17.5 0.979333 17.3043 0.588 16.913C0.196666 16.5217 0.000666667 16.0507 0 15.5Z" fill="#335E78"/>
</svg>
