<svg width="12" height="12" viewBox="0 0 12 12" fill="none" xmlns="http://www.w3.org/2000/svg">
<path d="M9.91324 1.65563L3.80777 0.577506C3.6865 0.556052 3.56219 0.558702 3.44195 0.585305C3.3217 0.611908 3.20787 0.661942 3.10697 0.732548C3.00607 0.803155 2.92006 0.89295 2.85387 0.996805C2.78768 1.10066 2.7426 1.21654 2.72121 1.33782L1.32668 9.25969C1.28362 9.50447 1.33953 9.75632 1.4821 9.9599C1.62467 10.1635 1.84224 10.3021 2.08699 10.3453L8.19246 11.4234C8.24692 11.4331 8.30214 11.438 8.35746 11.438C8.57813 11.4381 8.79177 11.3603 8.96077 11.2184C9.12977 11.0765 9.2433 10.8796 9.28136 10.6622L10.6759 2.74032C10.6971 2.61902 10.6941 2.49474 10.6672 2.37458C10.6404 2.25442 10.5901 2.14072 10.5192 2.04C10.4484 1.93927 10.3585 1.85349 10.2545 1.78754C10.1505 1.72158 10.0345 1.67676 9.91324 1.65563ZM8.20324 10.2825L2.46715 9.26954L3.79699 1.71751L9.53308 2.73047L8.20324 10.2825ZM4.30793 3.14063C4.33388 2.99376 4.41709 2.86321 4.53928 2.77768C4.66146 2.69215 4.81261 2.65865 4.95949 2.68454L8.10949 3.24094C8.25036 3.26254 8.37778 3.33681 8.466 3.44874C8.55423 3.56067 8.59667 3.70191 8.58477 3.84393C8.57287 3.98595 8.5075 4.11816 8.40187 4.21383C8.29625 4.30951 8.15824 4.36153 8.01574 4.35938C7.98275 4.35932 7.94982 4.3565 7.9173 4.35094L4.76402 3.79219C4.61715 3.76624 4.4866 3.68303 4.40107 3.56084C4.31554 3.43866 4.28204 3.28751 4.30793 3.14063ZM3.98449 4.98704C3.99734 4.91427 4.02439 4.84474 4.06412 4.78243C4.10384 4.72012 4.15546 4.66625 4.21601 4.6239C4.27656 4.58154 4.34486 4.55153 4.41702 4.53558C4.48917 4.51963 4.56376 4.51806 4.63652 4.53094L7.78746 5.08782C7.92577 5.11273 8.04974 5.1885 8.13498 5.30024C8.22022 5.41197 8.26054 5.55156 8.24802 5.69153C8.2355 5.83151 8.17104 5.96172 8.06732 6.05655C7.9636 6.15138 7.82815 6.20395 7.68761 6.20391C7.65462 6.20388 7.62169 6.20105 7.58918 6.19547L4.43871 5.6386C4.29218 5.61222 4.16209 5.52882 4.07695 5.40668C3.99181 5.28455 3.95856 5.13364 3.98449 4.98704ZM3.65637 6.83344C3.68231 6.68657 3.76553 6.55602 3.88771 6.47049C4.0099 6.38496 4.16105 6.35146 4.30793 6.37735L5.8848 6.65626C6.02344 6.68054 6.14793 6.75592 6.23371 6.86751C6.31949 6.9791 6.36031 7.1188 6.34813 7.25902C6.33594 7.39924 6.27163 7.52979 6.16789 7.62492C6.06415 7.72004 5.92852 7.77281 5.78777 7.77282C5.75476 7.77284 5.72181 7.76986 5.68933 7.76391L4.11387 7.48594C4.04092 7.47326 3.9712 7.44631 3.9087 7.40662C3.8462 7.36694 3.79214 7.3153 3.74964 7.25468C3.70713 7.19406 3.67702 7.12565 3.66101 7.05336C3.645 6.98108 3.64343 6.90634 3.65637 6.83344Z" fill="#92ADBE"/>
</svg>
